<?xml version="1.0" encoding="utf-8"?>
<!-- Generator: Adobe Illustrator 16.0.0, SVG Export Plug-In . SVG Version: 6.00 Build 0)  -->
<!DOCTYPE svg PUBLIC "-//W3C//DTD SVG 1.1//EN" "http://www.w3.org/Graphics/SVG/1.1/DTD/svg11.dtd">
<svg version="1.1" id="Layer_1" xmlns="http://www.w3.org/2000/svg" xmlns:xlink="http://www.w3.org/1999/xlink" x="0px" y="0px"
	 width="100px" height="100px" viewBox="0 0 100 100" enable-background="new 0 0 100 100" xml:space="preserve">
<path d="M49.652,37.109h-5.773c0,0,1.963,1.7,4.145,1.7C48.024,38.809,49.652,38.637,49.652,37.109z"/>
<path d="M24.078,83.756v-5.289h-2.896l1.131,5.071c0.04,0.18,0.03,0.367-0.03,0.541l-0.951,2.784h7.889v-2.107h-4.144
	C24.526,84.756,24.078,84.308,24.078,83.756z"/>
<path d="M94.238,91.908V7.818c0-1.104-0.896-2-2-2H8.148c-1.104,0-2,0.896-2,2v84.09c0,1.104,0.896,2,2,2h84.09
	C93.343,93.908,94.238,93.012,94.238,91.908z M23.858,27.152c0.265-0.303,1.684-1.799,5.337-3.554
	c-0.02-0.933-0.148-2.956-0.868-4.179c-0.05-0.085-0.085-0.18-0.102-0.278c-0.021-0.113-0.472-2.8,0.958-4.503
	c1.086-1.293,2.881-1.653,5.305-1.027c0.099,0.025,0.191,0.069,0.274,0.128c0,0,0.547,0.364,1.343,0.364
	c1.067,0,2.106-0.63,3.091-1.871c0.322-0.648,1.177-1.617,2.609-1.617c1.647,0,3.497,1.246,5.656,3.81l1.981,2.377
	c0.562-0.067,1.569-0.164,2.734-0.164c3.674,0,6.114,0.965,7.059,2.792c0.821,1.59,0.504,3.646-0.973,6.251
	c0.678-0.155,1.447-0.272,2.216-0.272c1.688,0,3.003,0.581,3.805,1.679c1.267,1.735,1.239,4.596-0.086,8.744
	c-0.588,1.846-1.557,5.456-1.858,6.591c1.654,2.617,12.363,19.838,12.153,26.894c-0.013,0.449-0.382,0.806-0.831,0.806H25.99
	c-0.244,0-0.476-0.107-0.634-0.293c-0.158-0.186-0.226-0.432-0.187-0.673l3.702-22.429c0.026-0.564,0.167-6.279-4.77-8.652
	c-0.291-0.141-0.475-0.437-0.471-0.759c0.004-0.324,0.195-0.616,0.49-0.749l2.267-1.019c-1.754-0.625-3.945-1.762-4.497-3.644
	C21.452,30.412,22.114,28.813,23.858,27.152z M81.845,88.445c-0.188,0.263-0.491,0.418-0.813,0.418H70.745c-0.552,0-1-0.448-1-1
	v-3.107H31.222v3.107c0,0.552-0.448,1-1,1H19.935c-0.323,0-0.625-0.156-0.813-0.418c-0.188-0.262-0.237-0.599-0.133-0.905
	l1.312-3.841l-1.342-6.014c-0.066-0.296,0.006-0.606,0.196-0.843s0.477-0.375,0.78-0.375h4.144V72.69c0-0.552,0.448-1,1-1h50.81
	c0.552,0,1,0.448,1,1v3.777h4.144c0.303,0,0.59,0.138,0.78,0.375s0.262,0.547,0.196,0.843l-1.342,6.014l1.312,3.841
	C82.083,87.846,82.033,88.183,81.845,88.445z"/>
<path d="M28.981,34.545c0.356,0.068,0.627,0.36,0.669,0.719c0.009,0.076,0.002,0.148-0.009,0.22
	c17.619,2.673,26.895-7.104,26.895-7.104c4.254-1.246,5.589-0.708,5.891,0.874c1.855,9.709-26.183,15.6-26.183,15.6l1.309,5.892
	c3.155,7.054,0.929,15.146,0.072,17.715h35.182c-0.635-7.527-11.943-25.265-12.062-25.45c-0.125-0.196-0.164-0.436-0.104-0.659
	c0.05-0.194,1.261-4.787,1.976-7.024c1.415-4.432,0.958-6.394,0.326-7.258c-0.483-0.661-1.311-0.997-2.462-0.997
	c-1.85,0-3.806,0.858-3.825,0.866c-0.342,0.151-0.744,0.056-0.98-0.234c-0.237-0.289-0.252-0.701-0.035-1.006
	c2.074-2.926,2.807-5.175,2.121-6.504c-0.852-1.647-3.863-1.893-5.583-1.893c-1.627,0-2.935,0.206-2.948,0.208
	c-0.291,0.047-0.582-0.064-0.769-0.289l-2.273-2.728c-2.355-2.797-3.757-3.215-4.382-3.215c-0.778,0-1.102,0.655-1.137,0.729
	c-0.027,0.057-0.064,0.122-0.104,0.172c-1.659,2.138-3.341,2.586-4.46,2.586c-1.061,0-1.839-0.387-2.159-0.577
	c-1.674-0.41-2.849-0.244-3.487,0.514c-0.721,0.853-0.701,2.359-0.617,3.02c1.112,2.051,1.019,5.289,1.014,5.429
	c-0.011,0.315-0.197,0.596-0.482,0.728c-3.965,1.829-5.255,3.354-5.269,3.369c-0.021,0.026-0.048,0.056-0.073,0.079
	c-1.276,1.207-1.797,2.254-1.547,3.108C24.005,33.217,27.721,34.306,28.981,34.545z M30.68,25c0,0,12.632-0.11,18.972-6.001
	l1.103,2.182c0,0-4.365,6.587-20.075,6.512V25z M24.907,29.301c0.448-0.046,0.87,0.269,0.925,0.726
	c0.1,0.822,0.503,1.444,1.233,1.903c4.255,2.671,17.553-0.964,22.317-2.589c0.435-0.147,0.907,0.083,1.056,0.519
	c0.148,0.434-0.084,0.906-0.519,1.055c-0.557,0.189-10.71,3.616-18.064,3.616c-2.286,0-4.3-0.331-5.674-1.193
	c-1.165-0.73-1.837-1.777-2-3.11C24.126,29.771,24.451,29.358,24.907,29.301z"/>
<path d="M42.017,37.109h-5.773c0,0,1.963,1.7,4.145,1.7C40.389,38.809,42.017,38.637,42.017,37.109z"/>
<polygon points="74.888,77.467 74.888,73.69 26.078,73.69 26.078,77.467 26.078,82.756 30.222,82.756 70.745,82.756 74.888,82.756 
	"/>
<path d="M79.784,78.467h-2.896v5.289c0,0.552-0.448,1-1,1h-4.143v2.107h7.888l-0.951-2.784c-0.06-0.174-0.07-0.361-0.03-0.541
	L79.784,78.467z"/>
</svg>
